<svg xmlns="http://www.w3.org/2000/svg" data-name="Layer 1" viewBox="0 0 32 32" fill="black"><path d="M30.8,20.947l-.078-.354a34.248,34.248,0,0,0-3.16-8.784,34.115,34.115,0,0,0-5.28-7.438A25.638,25.638,0,0,0,15.44.551L15.218.468c-1.432-.535-2.3-.86-3.741.431-.769.687-3.2,3.129-2.254,5.752.441,1.221,1.93,2.8,3.322,2.6a1.842,1.842,0,0,0,.847-.376,1.165,1.165,0,0,1,.655-.271,1.69,1.69,0,0,1,.692.1,3.747,3.747,0,0,0,1.118.179h0a2.186,2.186,0,0,0,.876-.166.682.682,0,0,1,.342-.066,2.152,2.152,0,0,1,1.395.826,2.449,2.449,0,0,1,.375,2.025.516.516,0,0,0-.016.125V17a6.49,6.49,0,0,0-6.48,1.367A7.866,7.866,0,0,0,6.461,17.7a7.488,7.488,0,0,0-4.675,3.759,7.634,7.634,0,0,0,.322,7.263,7.272,7.272,0,0,0,2.7,2.729A5.734,5.734,0,0,0,7.533,32c.528,0,1.069-.036,1.6-.085a9.525,9.525,0,0,0,1.562-.329,4.78,4.78,0,0,1,2.2-.271,10.56,10.56,0,0,0,4.224.127,24.433,24.433,0,0,0,9.036-3.927A19.654,19.654,0,0,0,30.377,23.8,2.948,2.948,0,0,0,30.8,20.947Zm-1.215,2.244a18.758,18.758,0,0,1-4.005,3.5,23.391,23.391,0,0,1-8.647,3.763,9.512,9.512,0,0,1-3.806-.117,5.52,5.52,0,0,0-2.69.277,8.537,8.537,0,0,1-1.392.3,7.048,7.048,0,0,1-3.764-.352A6.259,6.259,0,0,1,2.97,28.213a6.63,6.63,0,0,1-.294-6.3A6.488,6.488,0,0,1,6.73,18.66a6.764,6.764,0,0,1,4.941.5,4.988,4.988,0,0,0-.564.988,5.1,5.1,0,0,0-.333,2.687.5.5,0,0,0,.494.429.612.612,0,0,0,.072,0,.5.5,0,0,0,.423-.566,4.107,4.107,0,0,1,.266-2.159,4.027,4.027,0,0,1,.908-1.336l.007-.01a5.5,5.5,0,0,1,6.173-.994.5.5,0,0,0,.715-.451V11.685a3.463,3.463,0,0,0-.567-2.82A3.127,3.127,0,0,0,17.138,7.65a1.612,1.612,0,0,0-.762.132.968.968,0,0,1-.519.1,2.742,2.742,0,0,1-.841-.14A2.749,2.749,0,0,0,13.96,7.6a2.14,2.14,0,0,0-1.144.448.893.893,0,0,1-.414.2c-.776.1-1.9-1-2.24-1.946-.583-1.615.641-3.47,1.98-4.666.995-.889,1.361-.75,2.725-.24l.224.084A24.844,24.844,0,0,1,18.76,3.206a25.6,25.6,0,0,1,2.849,1.9,33.227,33.227,0,0,1,5.068,7.169A33.23,33.23,0,0,1,29.744,20.8l.082.368C30.025,22.05,30.125,22.491,29.585,23.191Zm-7.566,1.515a.5.5,0,0,0-.678.2,5.736,5.736,0,0,1-2.662,2.486,5.91,5.91,0,0,1-4.8-.1.5.5,0,1,0-.426.9,7.3,7.3,0,0,0,3,.661,6.418,6.418,0,0,0,2.628-.555,6.747,6.747,0,0,0,3.133-2.922A.5.5,0,0,0,22.019,24.706Z"/></svg>